<svg xmlns="http://www.w3.org/2000/svg" xmlns:xlink="http://www.w3.org/1999/xlink" width="92.318" height="113.572" viewBox="0 0 92.318 113.572">
  <defs>
    <clipPath id="clip-path">
      <path id="Path_149" data-name="Path 149" d="M662.56,848.908a34.856,34.856,0,1,1,34.856,34.855l-52.283-.13a34.846,34.846,0,0,1,17.946-30.487" transform="translate(-645.132 -814.052)" fill="none"/>
    </clipPath>
  </defs>
  <g id="Group_21" data-name="Group 21" transform="translate(-60.851 -44)">
    <g id="Group_19" data-name="Group 19" transform="translate(61.09 44)">
      <g id="Group_16" data-name="Group 16" transform="translate(0)">
        <g id="Group_15" data-name="Group 15" transform="translate(2.47 2.47)">
          <g id="Group_14" data-name="Group 14" clip-path="url(#clip-path)">
            <path id="Path_6" data-name="Path 6" d="M645.132,973.754l.225.13h-.225Z" transform="translate(-645.132 -904.173)" fill="#ffe600"/>
            <path id="Path_7" data-name="Path 7" d="M645.132,972.334l1.3.748h-1.071l-.225-.13Z" transform="translate(-645.132 -903.371)" fill="#ffe600"/>
            <path id="Path_8" data-name="Path 8" d="M645.132,970.914l2.368,1.367h-1.071l-1.3-.749Z" transform="translate(-645.132 -902.57)" fill="#ffe500"/>
            <path id="Path_9" data-name="Path 9" d="M645.132,969.494l3.439,1.986H647.5l-2.368-1.367Z" transform="translate(-645.132 -901.769)" fill="#ffe401"/>
            <path id="Path_10" data-name="Path 10" d="M645.132,968.074l4.511,2.6h-1.071l-3.439-1.986Z" transform="translate(-645.132 -900.968)" fill="#ffe301"/>
            <path id="Path_11" data-name="Path 11" d="M645.132,966.655l5.582,3.223h-1.072l-4.511-2.6Z" transform="translate(-645.132 -900.167)" fill="#ffe201"/>
            <path id="Path_12" data-name="Path 12" d="M645.132,965.235l6.654,3.842h-1.072l-5.582-3.223Z" transform="translate(-645.132 -899.365)" fill="#ffe102"/>
            <path id="Path_13" data-name="Path 13" d="M645.132,963.815l7.725,4.46h-1.071l-6.654-3.842Z" transform="translate(-645.132 -898.564)" fill="#ffe002"/>
            <path id="Path_14" data-name="Path 14" d="M645.132,962.395l8.8,5.079h-1.071l-7.725-4.46Z" transform="translate(-645.132 -897.763)" fill="#ffdf02"/>
            <path id="Path_15" data-name="Path 15" d="M645.132,960.975l9.868,5.7h-1.072l-8.8-5.079Z" transform="translate(-645.132 -896.962)" fill="#ffde03"/>
            <path id="Path_16" data-name="Path 16" d="M645.132,959.555l10.94,6.316H655l-9.868-5.7Z" transform="translate(-645.132 -896.16)" fill="#ffdd03"/>
            <path id="Path_17" data-name="Path 17" d="M645.132,958.135l12.011,6.935h-1.072l-10.94-6.316Z" transform="translate(-645.132 -895.359)" fill="#ffdc04"/>
            <path id="Path_18" data-name="Path 18" d="M645.132,956.716l13.083,7.553h-1.071l-12.011-6.935Z" transform="translate(-645.132 -894.558)" fill="#ffdb04"/>
            <path id="Path_19" data-name="Path 19" d="M645.132,955.3l14.154,8.172h-1.072l-13.083-7.553Z" transform="translate(-645.132 -893.757)" fill="#ffda04"/>
            <path id="Path_20" data-name="Path 20" d="M645.132,953.876l15.226,8.79h-1.071l-14.154-8.172Z" transform="translate(-645.132 -892.955)" fill="#ffd905"/>
            <path id="Path_21" data-name="Path 21" d="M645.132,952.456l16.3,9.409h-1.072l-15.226-8.791Z" transform="translate(-645.132 -892.154)" fill="#ffd805"/>
            <path id="Path_22" data-name="Path 22" d="M645.132,951.036,662.5,961.064h-1.071l-16.3-9.409Z" transform="translate(-645.132 -891.353)" fill="#ffd705"/>
            <path id="Path_23" data-name="Path 23" d="M645.132,949.616l18.44,10.646H662.5l-17.369-10.028Z" transform="translate(-645.132 -890.552)" fill="#ffd606"/>
            <path id="Path_24" data-name="Path 24" d="M645.132,948.2l19.512,11.265h-1.071l-18.44-10.646Z" transform="translate(-645.132 -889.751)" fill="#ffd506"/>
            <path id="Path_25" data-name="Path 25" d="M645.132,946.777l20.583,11.884h-1.071L645.132,947.4Z" transform="translate(-645.132 -888.949)" fill="#ffd406"/>
            <path id="Path_26" data-name="Path 26" d="M645.132,945.357l21.655,12.5h-1.072l-20.583-11.884Z" transform="translate(-645.132 -888.148)" fill="#ffd307"/>
            <path id="Path_27" data-name="Path 27" d="M645.132,943.937l22.726,13.121h-1.071l-21.655-12.5Z" transform="translate(-645.132 -887.347)" fill="#ffd207"/>
            <path id="Path_28" data-name="Path 28" d="M645.132,942.517l23.8,13.74h-1.072l-22.726-13.121Z" transform="translate(-645.132 -886.546)" fill="#ffd107"/>
            <path id="Path_29" data-name="Path 29" d="M645.132,941.1,670,955.455h-1.072l-23.8-13.74Z" transform="translate(-645.132 -885.744)" fill="#ffd008"/>
            <path id="Path_30" data-name="Path 30" d="M645.132,939.677l25.941,14.977H670L645.132,940.3Z" transform="translate(-645.132 -884.943)" fill="#ffcf08"/>
            <path id="Path_31" data-name="Path 31" d="M645.132,938.257l27.012,15.6h-1.071l-25.941-14.977Z" transform="translate(-645.132 -884.142)" fill="#ffce09"/>
            <path id="Path_32" data-name="Path 32" d="M645.132,936.838l28.083,16.214h-1.071l-27.012-15.6Z" transform="translate(-645.132 -883.341)" fill="#ffcd09"/>
            <path id="Path_33" data-name="Path 33" d="M645.132,935.418l29.155,16.833h-1.072l-28.083-16.214Z" transform="translate(-645.132 -882.539)" fill="#ffcc09"/>
            <path id="Path_34" data-name="Path 34" d="M645.132,934l30.226,17.451h-1.071l-29.155-16.833Z" transform="translate(-645.132 -881.738)" fill="#ffcb0a"/>
            <path id="Path_35" data-name="Path 35" d="M645.132,932.578l31.3,18.07h-1.071L645.132,933.2Z" transform="translate(-645.132 -880.937)" fill="#ffca0a"/>
            <path id="Path_36" data-name="Path 36" d="M645.132,931.158,677.5,949.847H676.43l-31.3-18.07Z" transform="translate(-645.132 -880.136)" fill="#ffc90a"/>
            <path id="Path_37" data-name="Path 37" d="M645.132,929.738l33.441,19.307H677.5l-32.369-18.689Z" transform="translate(-645.132 -879.335)" fill="#ffc80b"/>
            <path id="Path_38" data-name="Path 38" d="M645.132,928.318l34.512,19.926h-1.071l-33.441-19.307Z" transform="translate(-645.132 -878.533)" fill="#ffc70b"/>
            <path id="Path_39" data-name="Path 39" d="M645.132,926.9l35.584,20.544h-1.072l-34.512-19.926Z" transform="translate(-645.132 -877.732)" fill="#ffc60b"/>
            <path id="Path_40" data-name="Path 40" d="M645.132,925.479l36.655,21.163h-1.072L645.132,926.1Z" transform="translate(-645.132 -876.931)" fill="#ffc50c"/>
            <path id="Path_41" data-name="Path 41" d="M645.132,924.059l37.727,21.782h-1.072l-36.655-21.163Z" transform="translate(-645.132 -876.13)" fill="#ffc40c"/>
            <path id="Path_42" data-name="Path 42" d="M645.132,922.639l38.8,22.4h-1.071l-37.727-21.782Z" transform="translate(-645.132 -875.328)" fill="#ffc30c"/>
            <path id="Path_43" data-name="Path 43" d="M645.132,921.219,685,944.238H683.93l-38.8-22.4Z" transform="translate(-645.132 -874.527)" fill="#ffc20d"/>
            <path id="Path_44" data-name="Path 44" d="M645.132,919.8l40.941,23.637H685l-39.87-23.019Z" transform="translate(-645.132 -873.726)" fill="#ffc10d"/>
            <path id="Path_45" data-name="Path 45" d="M645.132,918.379l42.013,24.256h-1.072L645.132,919Z" transform="translate(-645.132 -872.925)" fill="#ffc00d"/>
            <path id="Path_46" data-name="Path 46" d="M645.132,916.96l43.084,24.875h-1.071l-42.013-24.256Z" transform="translate(-645.132 -872.123)" fill="#ffbf0e"/>
            <path id="Path_47" data-name="Path 47" d="M645.132,915.54l44.156,25.493h-1.072l-43.084-24.875Z" transform="translate(-645.132 -871.322)" fill="#ffbe0e"/>
            <path id="Path_48" data-name="Path 48" d="M645.132,914.715l.195-.337,45.033,26h-1.072l-44.156-25.493Z" transform="translate(-645.132 -870.666)" fill="#ffbd0f"/>
            <path id="Path_49" data-name="Path 49" d="M645.578,913.777l.268-.464,45.836,26.464h-1.072Z" transform="translate(-645.384 -870.066)" fill="#ffbc0f"/>
            <path id="Path_50" data-name="Path 50" d="M646.193,912.712l.268-.464,46.64,26.928H692.03Z" transform="translate(-645.731 -869.464)" fill="#ffbb0f"/>
            <path id="Path_51" data-name="Path 51" d="M646.808,911.647l.268-.464,47.443,27.392h-1.071Z" transform="translate(-646.078 -868.864)" fill="#ffba10"/>
            <path id="Path_52" data-name="Path 52" d="M647.423,910.582l.268-.464,48.247,27.855h-1.071Z" transform="translate(-646.425 -868.263)" fill="#ffb910"/>
            <path id="Path_53" data-name="Path 53" d="M648.038,909.517l.268-.464,49.051,28.319h-1.072Z" transform="translate(-646.772 -867.662)" fill="#ffb810"/>
            <path id="Path_54" data-name="Path 54" d="M648.652,908.452l.268-.464,49.854,28.783H697.7Z" transform="translate(-647.119 -867.061)" fill="#ffb711"/>
            <path id="Path_55" data-name="Path 55" d="M649.267,907.387l.268-.464,50.658,29.248h-1.072Z" transform="translate(-647.466 -866.46)" fill="#ffb611"/>
            <path id="Path_56" data-name="Path 56" d="M649.882,906.323l.268-.464,51.462,29.712H700.54Z" transform="translate(-647.813 -865.859)" fill="#ffb511"/>
            <path id="Path_57" data-name="Path 57" d="M650.5,905.258l.268-.464,52.265,30.175h-1.071Z" transform="translate(-648.16 -865.258)" fill="#ffb412"/>
            <path id="Path_58" data-name="Path 58" d="M651.112,904.193l.268-.464,53.069,30.64h-1.071Z" transform="translate(-648.506 -864.657)" fill="#ffb312"/>
            <path id="Path_59" data-name="Path 59" d="M651.727,903.128l.268-.464,53.872,31.1H704.8Z" transform="translate(-648.853 -864.056)" fill="#ffb212"/>
            <path id="Path_60" data-name="Path 60" d="M652.341,902.063l.268-.464,54.676,31.567h-1.072Z" transform="translate(-649.2 -863.455)" fill="#ffb113"/>
            <path id="Path_61" data-name="Path 61" d="M652.956,901l.268-.464,55.48,32.031h-1.072Z" transform="translate(-649.547 -862.854)" fill="#ffb013"/>
            <path id="Path_62" data-name="Path 62" d="M653.571,899.933l.268-.464,56.283,32.5h-1.072Z" transform="translate(-649.894 -862.253)" fill="#ffaf14"/>
            <path id="Path_63" data-name="Path 63" d="M654.186,898.868l.268-.464,57.087,32.959h-1.072Z" transform="translate(-650.241 -861.652)" fill="#ffae14"/>
            <path id="Path_64" data-name="Path 64" d="M654.8,897.8l.268-.464,57.891,33.423h-1.071Z" transform="translate(-650.588 -861.052)" fill="#ffad14"/>
            <path id="Path_65" data-name="Path 65" d="M655.415,896.738l.268-.464,58.694,33.887h-1.071Z" transform="translate(-650.935 -860.451)" fill="#ffac15"/>
            <path id="Path_66" data-name="Path 66" d="M656.03,895.673l.268-.464,59.5,34.351h-1.071Z" transform="translate(-651.282 -859.85)" fill="#ffab15"/>
            <path id="Path_67" data-name="Path 67" d="M656.645,894.609l.268-.464,60.3,34.815h-1.072Z" transform="translate(-651.629 -859.249)" fill="#ffaa15"/>
            <path id="Path_68" data-name="Path 68" d="M657.26,893.544l.268-.464,61.105,35.279h-1.072Z" transform="translate(-651.976 -858.648)" fill="#ffa916"/>
            <path id="Path_69" data-name="Path 69" d="M657.875,892.479l.268-.464,61.909,35.743H718.98Z" transform="translate(-652.323 -858.047)" fill="#ffa816"/>
            <path id="Path_70" data-name="Path 70" d="M658.49,891.414l.268-.464,62.712,36.207H720.4Z" transform="translate(-652.67 -857.446)" fill="#ffa716"/>
            <path id="Path_71" data-name="Path 71" d="M659.1,890.349l.268-.464,63.516,36.671h-1.071Z" transform="translate(-653.017 -856.845)" fill="#ffa617"/>
            <path id="Path_72" data-name="Path 72" d="M659.719,889.284l.268-.464,64.319,37.135h-1.071Z" transform="translate(-653.364 -856.244)" fill="#ffa517"/>
            <path id="Path_73" data-name="Path 73" d="M660.334,888.219l.268-.464,65.123,37.6h-1.071Z" transform="translate(-653.711 -855.643)" fill="#ffa417"/>
            <path id="Path_74" data-name="Path 74" d="M660.949,887.154l.268-.464,65.927,38.063h-1.072Z" transform="translate(-654.057 -855.042)" fill="#ffa318"/>
            <path id="Path_75" data-name="Path 75" d="M661.564,886.089l.268-.464,66.73,38.527H727.49Z" transform="translate(-654.404 -854.441)" fill="#ffa218"/>
            <path id="Path_76" data-name="Path 76" d="M662.178,885.025l.268-.464,67.534,38.991h-1.072Z" transform="translate(-654.751 -853.841)" fill="#ffa118"/>
            <path id="Path_77" data-name="Path 77" d="M662.793,883.96l.268-.464L731.4,922.951h-1.071Z" transform="translate(-655.098 -853.24)" fill="#ffa019"/>
            <path id="Path_78" data-name="Path 78" d="M663.408,882.895l.268-.464,69.141,39.918h-1.071Z" transform="translate(-655.445 -852.639)" fill="#ff9f19"/>
            <path id="Path_79" data-name="Path 79" d="M664.023,881.83l.268-.464,69.945,40.382h-1.071Z" transform="translate(-655.792 -852.038)" fill="#ff9e1a"/>
            <path id="Path_80" data-name="Path 80" d="M664.638,880.765l.268-.464,70.464,40.682-.095.164h-.692Z" transform="translate(-656.139 -851.437)" fill="#ff9d1a"/>
            <rect id="Rectangle_3" data-name="Rectangle 3" width="0.536" height="81.365" transform="translate(8.766 28.864) rotate(-60)" fill="#ff9c1a"/>
            <rect id="Rectangle_4" data-name="Rectangle 4" width="0.536" height="81.365" transform="translate(9.034 28.4) rotate(-60)" fill="#ff9b1b"/>
            <rect id="Rectangle_5" data-name="Rectangle 5" width="0.536" height="81.365" transform="matrix(0.5, -0.866, 0.866, 0.5, 9.302, 27.936)" fill="#ff9a1b"/>
            <rect id="Rectangle_6" data-name="Rectangle 6" width="0.536" height="81.365" transform="translate(9.57 27.472) rotate(-60)" fill="#ff991b"/>
            <rect id="Rectangle_7" data-name="Rectangle 7" width="0.536" height="81.365" transform="translate(9.838 27.008) rotate(-60)" fill="#ff981c"/>
            <rect id="Rectangle_8" data-name="Rectangle 8" width="0.536" height="81.365" transform="translate(10.106 26.544) rotate(-60)" fill="#ff971c"/>
            <rect id="Rectangle_9" data-name="Rectangle 9" width="0.536" height="81.365" transform="matrix(0.5, -0.866, 0.866, 0.5, 10.374, 26.08)" fill="#ff961c"/>
            <rect id="Rectangle_10" data-name="Rectangle 10" width="0.536" height="81.365" transform="translate(10.641 25.617) rotate(-60)" fill="#ff951d"/>
            <rect id="Rectangle_11" data-name="Rectangle 11" width="0.536" height="81.365" transform="translate(10.909 25.153) rotate(-60)" fill="#ff941d"/>
            <rect id="Rectangle_12" data-name="Rectangle 12" width="0.536" height="81.365" transform="translate(11.177 24.689) rotate(-60)" fill="#ff931d"/>
            <rect id="Rectangle_13" data-name="Rectangle 13" width="0.536" height="81.365" transform="matrix(0.5, -0.866, 0.866, 0.5, 11.445, 24.225)" fill="#ff921e"/>
            <rect id="Rectangle_14" data-name="Rectangle 14" width="0.536" height="81.365" transform="translate(11.713 23.761) rotate(-60)" fill="#ff901e"/>
            <rect id="Rectangle_15" data-name="Rectangle 15" width="0.536" height="81.365" transform="translate(11.981 23.297) rotate(-60)" fill="#ff8f1f"/>
            <rect id="Rectangle_16" data-name="Rectangle 16" width="0.536" height="81.365" transform="translate(12.249 22.833) rotate(-60)" fill="#ff8e1f"/>
            <rect id="Rectangle_17" data-name="Rectangle 17" width="0.536" height="81.365" transform="matrix(0.5, -0.866, 0.866, 0.5, 12.517, 22.369)" fill="#ff8d1f"/>
            <rect id="Rectangle_18" data-name="Rectangle 18" width="0.536" height="81.365" transform="translate(12.784 21.905) rotate(-60)" fill="#ff8c20"/>
            <rect id="Rectangle_19" data-name="Rectangle 19" width="0.536" height="81.365" transform="translate(13.052 21.441) rotate(-60)" fill="#ff8b20"/>
            <rect id="Rectangle_20" data-name="Rectangle 20" width="0.536" height="81.365" transform="translate(13.32 20.977) rotate(-60)" fill="#ff8a20"/>
            <rect id="Rectangle_21" data-name="Rectangle 21" width="0.536" height="81.365" transform="matrix(0.5, -0.866, 0.866, 0.5, 13.588, 20.513)" fill="#ff8921"/>
            <rect id="Rectangle_22" data-name="Rectangle 22" width="0.536" height="81.365" transform="translate(13.856 20.049) rotate(-60)" fill="#ff8821"/>
            <rect id="Rectangle_23" data-name="Rectangle 23" width="0.536" height="81.365" transform="translate(14.124 19.585) rotate(-60)" fill="#ff8721"/>
            <rect id="Rectangle_24" data-name="Rectangle 24" width="0.536" height="81.365" transform="translate(14.392 19.121) rotate(-60)" fill="#ff8622"/>
            <rect id="Rectangle_25" data-name="Rectangle 25" width="0.536" height="81.365" transform="translate(14.66 18.657) rotate(-60)" fill="#ff8522"/>
            <rect id="Rectangle_26" data-name="Rectangle 26" width="0.536" height="81.365" transform="matrix(0.5, -0.866, 0.866, 0.5, 14.927, 18.193)" fill="#ff8422"/>
            <rect id="Rectangle_27" data-name="Rectangle 27" width="0.536" height="81.365" transform="translate(15.195 17.729) rotate(-60)" fill="#ff8323"/>
            <rect id="Rectangle_28" data-name="Rectangle 28" width="0.536" height="81.365" transform="translate(15.463 17.265) rotate(-60)" fill="#ff8223"/>
            <rect id="Rectangle_29" data-name="Rectangle 29" width="0.536" height="81.365" transform="translate(15.731 16.801) rotate(-60)" fill="#ff8124"/>
            <rect id="Rectangle_30" data-name="Rectangle 30" width="0.536" height="81.365" transform="matrix(0.5, -0.866, 0.866, 0.5, 15.999, 16.337)" fill="#ff8024"/>
            <rect id="Rectangle_31" data-name="Rectangle 31" width="0.536" height="81.365" transform="translate(16.267 15.873) rotate(-60)" fill="#ff7f24"/>
            <path id="Path_81" data-name="Path 81" d="M683.082,848.818l.268-.464,70.336,40.609v.294l-.14.243Z" transform="translate(-666.548 -833.409)" fill="#ff7e25"/>
            <path id="Path_82" data-name="Path 82" d="M683.7,847.753l.268-.464,70.068,40.454v.619Z" transform="translate(-666.895 -832.808)" fill="#ff7d25"/>
            <path id="Path_83" data-name="Path 83" d="M684.312,846.688l.268-.464,69.8,40.3v.619Z" transform="translate(-667.241 -832.207)" fill="#ff7c25"/>
            <path id="Path_84" data-name="Path 84" d="M684.927,845.624l.268-.464L754.727,885.3v.619Z" transform="translate(-667.588 -831.606)" fill="#ff7b26"/>
            <path id="Path_85" data-name="Path 85" d="M685.542,844.559l.268-.464,69.265,39.99v.619Z" transform="translate(-667.935 -831.005)" fill="#ff7a26"/>
            <path id="Path_86" data-name="Path 86" d="M686.156,843.494l.268-.464,69,39.835v.619Z" transform="translate(-668.282 -830.404)" fill="#ff7926"/>
            <path id="Path_87" data-name="Path 87" d="M686.771,842.429l.268-.464,68.729,39.681v.619Z" transform="translate(-668.629 -829.803)" fill="#ff7827"/>
            <path id="Path_88" data-name="Path 88" d="M687.386,841.364l.268-.464,68.461,39.526v.619Z" transform="translate(-668.976 -829.202)" fill="#ff7727"/>
            <path id="Path_89" data-name="Path 89" d="M688,840.3l.268-.464,68.193,39.371v.619Z" transform="translate(-669.323 -828.602)" fill="#ff7627"/>
            <path id="Path_90" data-name="Path 90" d="M688.615,839.234l.268-.464,67.925,39.217v.619Z" transform="translate(-669.67 -828.001)" fill="#ff7528"/>
            <path id="Path_91" data-name="Path 91" d="M689.23,838.169l.268-.464,67.657,39.062v.619Z" transform="translate(-670.017 -827.4)" fill="#ff7428"/>
            <path id="Path_92" data-name="Path 92" d="M689.845,837.1l.268-.464,67.39,38.908v.618Z" transform="translate(-670.364 -826.799)" fill="#ff7328"/>
            <path id="Path_93" data-name="Path 93" d="M690.46,836.04l.268-.464,67.122,38.753v.619Z" transform="translate(-670.711 -826.198)" fill="#ff7229"/>
            <path id="Path_94" data-name="Path 94" d="M691.075,834.975l.268-.464,66.854,38.6v.619Z" transform="translate(-671.058 -825.597)" fill="#ff7129"/>
            <path id="Path_95" data-name="Path 95" d="M691.689,833.91l.268-.464,66.586,38.443v.619Z" transform="translate(-671.405 -824.996)" fill="#ff702a"/>
            <path id="Path_96" data-name="Path 96" d="M692.3,832.845l.268-.464L758.89,870.67v.619Z" transform="translate(-671.752 -824.395)" fill="#ff6f2a"/>
            <path id="Path_97" data-name="Path 97" d="M692.919,831.78l.268-.464,66.05,38.134v.619Z" transform="translate(-672.099 -823.794)" fill="#ff6e2a"/>
            <path id="Path_98" data-name="Path 98" d="M693.534,830.715l.268-.464,65.782,37.979v.619Z" transform="translate(-672.446 -823.193)" fill="#ff6d2b"/>
            <path id="Path_99" data-name="Path 99" d="M694.149,829.65l.268-.464,65.514,37.825v.619Z" transform="translate(-672.792 -822.592)" fill="#ff6c2b"/>
            <path id="Path_100" data-name="Path 100" d="M694.764,828.585l.268-.464,65.247,37.67v.619Z" transform="translate(-673.14 -821.991)" fill="#ff6b2b"/>
            <path id="Path_101" data-name="Path 101" d="M695.378,827.521l.268-.464,64.979,37.515v.619Z" transform="translate(-673.486 -821.391)" fill="#ff6a2c"/>
            <path id="Path_102" data-name="Path 102" d="M695.993,826.456l.268-.464,64.711,37.361v.619Z" transform="translate(-673.833 -820.79)" fill="#ff692c"/>
            <path id="Path_103" data-name="Path 103" d="M696.608,825.391l.268-.464,64.443,37.206v.619Z" transform="translate(-674.18 -820.189)" fill="#ff682c"/>
            <path id="Path_104" data-name="Path 104" d="M697.223,824.326l.268-.464,64.175,37.052v.619Z" transform="translate(-674.527 -819.588)" fill="#ff672d"/>
            <path id="Path_105" data-name="Path 105" d="M697.838,823.261l.268-.464,63.907,36.9v.619Z" transform="translate(-674.874 -818.987)" fill="#ff662d"/>
            <path id="Path_106" data-name="Path 106" d="M698.453,822.2l.268-.464,63.639,36.742v.619Z" transform="translate(-675.221 -818.386)" fill="#ff652d"/>
            <path id="Path_107" data-name="Path 107" d="M699.067,821.131l.268-.464,63.372,36.588v.619Z" transform="translate(-675.568 -817.785)" fill="#ff642e"/>
            <path id="Path_108" data-name="Path 108" d="M699.682,820.066l.268-.464,63.1,36.433v.619Z" transform="translate(-675.915 -817.184)" fill="#ff632e"/>
            <path id="Path_109" data-name="Path 109" d="M700.3,819l.268-.464L763.4,854.816v.619Z" transform="translate(-676.262 -816.583)" fill="#ff622f"/>
            <path id="Path_110" data-name="Path 110" d="M700.912,817.936l.268-.464L763.748,853.6v.619Z" transform="translate(-676.609 -815.982)" fill="#ff612f"/>
            <path id="Path_111" data-name="Path 111" d="M701.527,816.871l.268-.464,62.3,35.969V853Z" transform="translate(-676.956 -815.381)" fill="#ff602f"/>
            <path id="Path_112" data-name="Path 112" d="M702.141,815.807l.268-.464,62.032,35.814v.618Z" transform="translate(-677.303 -814.781)" fill="#ff5f30"/>
            <path id="Path_113" data-name="Path 113" d="M702.756,814.742l.268-.464,61.764,35.66v.619Z" transform="translate(-677.65 -814.179)" fill="#ff5e30"/>
            <path id="Path_114" data-name="Path 114" d="M703.371,814.15l.057-.1h.844l60.863,35.14v.619Z" transform="translate(-677.997 -814.052)" fill="#ff5d30"/>
            <path id="Path_115" data-name="Path 115" d="M706.51,814.052,766.3,848.573v.619l-60.864-35.14Z" transform="translate(-679.164 -814.052)" fill="#ff5c31"/>
            <path id="Path_116" data-name="Path 116" d="M708.97,814.052l58.72,33.9v.619L707.9,814.052Z" transform="translate(-680.552 -814.052)" fill="#ff5b31"/>
            <path id="Path_117" data-name="Path 117" d="M711.429,814.052l57.649,33.284v.619l-58.721-33.9Z" transform="translate(-681.939 -814.052)" fill="#ff5a31"/>
            <path id="Path_118" data-name="Path 118" d="M713.888,814.052l56.578,32.665v.619l-57.649-33.284Z" transform="translate(-683.327 -814.052)" fill="#ff5932"/>
            <path id="Path_119" data-name="Path 119" d="M716.347,814.052,771.853,846.1v.619l-56.578-32.665Z" transform="translate(-684.715 -814.052)" fill="#ff5832"/>
            <path id="Path_120" data-name="Path 120" d="M718.807,814.052l54.435,31.428v.619l-55.506-32.046Z" transform="translate(-686.102 -814.052)" fill="#ff5732"/>
            <path id="Path_121" data-name="Path 121" d="M721.266,814.052l53.363,30.809v.619l-54.435-31.428Z" transform="translate(-687.49 -814.052)" fill="#ff5633"/>
            <path id="Path_122" data-name="Path 122" d="M723.725,814.052l52.292,30.191v.619l-53.363-30.809Z" transform="translate(-688.878 -814.052)" fill="#f53"/>
            <path id="Path_123" data-name="Path 123" d="M726.184,814.052l51.22,29.572v.619l-52.292-30.191Z" transform="translate(-690.266 -814.052)" fill="#ff5433"/>
            <path id="Path_124" data-name="Path 124" d="M728.644,814.052l50.149,28.953v.619l-51.22-29.572Z" transform="translate(-691.653 -814.052)" fill="#ff5334"/>
            <path id="Path_125" data-name="Path 125" d="M731.1,814.052l49.077,28.335v.619l-50.149-28.953Z" transform="translate(-693.041 -814.052)" fill="#ff5234"/>
            <path id="Path_126" data-name="Path 126" d="M733.562,814.052l48.006,27.716v.619l-49.077-28.335Z" transform="translate(-694.429 -814.052)" fill="#ff5135"/>
            <path id="Path_127" data-name="Path 127" d="M736.021,814.052l46.934,27.1v.619L734.95,814.052Z" transform="translate(-695.817 -814.052)" fill="#ff5035"/>
            <path id="Path_128" data-name="Path 128" d="M738.481,814.052l45.863,26.479v.619l-46.934-27.1Z" transform="translate(-697.205 -814.052)" fill="#ff4f35"/>
            <path id="Path_129" data-name="Path 129" d="M740.94,814.052l44.791,25.86v.619l-45.863-26.479Z" transform="translate(-698.592 -814.052)" fill="#ff4e36"/>
            <path id="Path_130" data-name="Path 130" d="M743.4,814.052l43.72,25.242v.619l-44.791-25.86Z" transform="translate(-699.98 -814.052)" fill="#ff4d36"/>
            <path id="Path_131" data-name="Path 131" d="M745.859,814.052l42.648,24.623v.619l-43.72-25.242Z" transform="translate(-701.368 -814.052)" fill="#ff4c36"/>
            <path id="Path_132" data-name="Path 132" d="M748.318,814.052l41.577,24v.619l-42.648-24.623Z" transform="translate(-702.756 -814.052)" fill="#ff4b37"/>
            <path id="Path_133" data-name="Path 133" d="M750.777,814.052l40.505,23.386v.619l-41.577-24Z" transform="translate(-704.143 -814.052)" fill="#ff4a37"/>
            <path id="Path_134" data-name="Path 134" d="M753.236,814.052l39.434,22.767v.619l-40.505-23.386Z" transform="translate(-705.531 -814.052)" fill="#ff4937"/>
            <path id="Path_135" data-name="Path 135" d="M755.7,814.052,794.058,836.2v.619l-39.434-22.767Z" transform="translate(-706.919 -814.052)" fill="#ff4838"/>
            <path id="Path_136" data-name="Path 136" d="M758.155,814.052l37.291,21.53v.619l-38.362-22.149Z" transform="translate(-708.307 -814.052)" fill="#ff4738"/>
            <path id="Path_137" data-name="Path 137" d="M760.614,814.052l36.219,20.911v.619l-37.291-21.53Z" transform="translate(-709.694 -814.052)" fill="#ff4638"/>
            <path id="Path_138" data-name="Path 138" d="M763.073,814.052l35.148,20.293v.619L762,814.052Z" transform="translate(-711.082 -814.052)" fill="#ff4539"/>
            <path id="Path_139" data-name="Path 139" d="M765.533,814.052l34.076,19.674v.619l-35.148-20.293Z" transform="translate(-712.47 -814.052)" fill="#ff4439"/>
            <path id="Path_140" data-name="Path 140" d="M767.992,814.052l33,19.055v.619L766.92,814.052Z" transform="translate(-713.858 -814.052)" fill="#ff433a"/>
            <path id="Path_141" data-name="Path 141" d="M770.451,814.052l31.933,18.437v.619l-33-19.055Z" transform="translate(-715.246 -814.052)" fill="#ff423a"/>
            <path id="Path_142" data-name="Path 142" d="M772.91,814.052l30.862,17.818v.619l-31.933-18.437Z" transform="translate(-716.633 -814.052)" fill="#ff413a"/>
            <path id="Path_143" data-name="Path 143" d="M775.37,814.052l29.79,17.2v.619L774.3,814.052Z" transform="translate(-718.021 -814.052)" fill="#ff403b"/>
            <path id="Path_144" data-name="Path 144" d="M777.829,814.052l28.719,16.581v.619l-29.79-17.2Z" transform="translate(-719.409 -814.052)" fill="#ff3f3b"/>
            <path id="Path_145" data-name="Path 145" d="M780.288,814.052l27.647,15.962v.619l-28.719-16.581Z" transform="translate(-720.797 -814.052)" fill="#ff3e3b"/>
            <path id="Path_146" data-name="Path 146" d="M782.747,814.052,809.323,829.4v.619l-27.647-15.962Z" transform="translate(-722.185 -814.052)" fill="#ff3d3c"/>
            <path id="Path_147" data-name="Path 147" d="M785.207,814.052l25.5,14.725v.619l-26.576-15.344Z" transform="translate(-723.572 -814.052)" fill="#ff3c3c"/>
            <path id="Path_148" data-name="Path 148" d="M812.1,828.777l-25.5-14.725h25.5Z" transform="translate(-724.96 -814.052)" fill="#ff3c3c"/>
          </g>
        </g>
        <path id="Path_150" data-name="Path 150" d="M694.216,883.034l-52.29-.13a2.47,2.47,0,0,1-2.464-2.47,37.376,37.376,0,0,1,18.9-32.467,2.471,2.471,0,0,1-1.47-2.259,37.326,37.326,0,1,1,37.326,37.326ZM644.5,877.971l49.725.123a32.386,32.386,0,1,0-32.392-32.386,1.582,1.582,0,0,0,.207,3.039,2.469,2.469,0,0,1-.958,3.359A32.44,32.44,0,0,0,644.5,877.971Z" transform="translate(-639.462 -808.383)"/>
      </g>
      <g id="Group_17" data-name="Group 17" transform="translate(17.428 34.856)">
        <path id="Path_151" data-name="Path 151" d="M699.392,910.783a19.953,19.953,0,0,1-19.93-19.93,2.47,2.47,0,0,1,4.94,0,14.99,14.99,0,0,0,29.98,0,2.47,2.47,0,0,1,4.94,0A19.953,19.953,0,0,1,699.392,910.783Z" transform="translate(-679.462 -888.383)"/>
      </g>
      <g id="Group_18" data-name="Group 18" transform="translate(16.053 55.93)">
        <circle id="Ellipse_1" data-name="Ellipse 1" cx="3.268" cy="3.268" r="3.268"/>
      </g>
    </g>
    <g id="Group_20" data-name="Group 20" transform="translate(60.851 132.615)">
      <g id="Group_2" data-name="Group 2" transform="translate(0 0.719)">
        <g id="Group_1" data-name="Group 1">
          <rect id="Rectangle_2" data-name="Rectangle 2" width="4.198" height="23.968" rx="2"/>
        </g>
      </g>
      <g id="Group_4" data-name="Group 4" transform="translate(7.744 0)">
        <g id="Group_3" data-name="Group 3">
          <path id="Path_1" data-name="Path 1" d="M926.548,867.182a.484.484,0,0,1-.484-.484V850.6a.484.484,0,0,1,.484-.484h3.229a.484.484,0,0,1,.484.484V866.7a.484.484,0,0,1-.484.484Zm1.615-19.253a2.688,2.688,0,1,1,1.93-.787A2.706,2.706,0,0,1,928.163,847.928Z" transform="translate(-925.446 -842.495)"/>
        </g>
      </g>
      <g id="Group_6" data-name="Group 6" transform="translate(15.334 7.354)">
        <g id="Group_5" data-name="Group 5">
          <path id="Path_2" data-name="Path 2" d="M963.432,890.483A6.756,6.756,0,0,1,959.2,889.1a8.061,8.061,0,0,1-2.344-2.788.484.484,0,0,1,.205-.642l2.477-1.326a.484.484,0,0,1,.229-.057.483.483,0,0,1,.441.285,3.428,3.428,0,0,0,3.224,2.328c1.393,0,2.1-.615,2.1-1.828a1.381,1.381,0,0,0-.9-1.281l-.024-.012a5.608,5.608,0,0,0-.911-.391l-.049-.019c-.323-.149-.823-.328-1.308-.5-.386-.138-.786-.281-1.071-.4-2.421-1.021-3.453-2.4-3.453-4.6a4.686,4.686,0,0,1,1.523-3.521,5.436,5.436,0,0,1,3.927-1.456,6.435,6.435,0,0,1,5.09,2.412.484.484,0,0,1-.055.652l-1.825,1.677a.485.485,0,0,1-.677-.022,3.414,3.414,0,0,0-2.532-1.132,1.414,1.414,0,0,0-1.557,1.422c0,.26,0,1.049,1.625,1.659l1.219.44L966,880.5a8.708,8.708,0,0,1,1.02.531l.2.112a3.711,3.711,0,0,1,1.219.88l.01.012a4.37,4.37,0,0,1,1.039,2.764,5.454,5.454,0,0,1-1.693,4.029A5.854,5.854,0,0,1,963.432,890.483Z" transform="translate(-956.805 -872.88)"/>
        </g>
      </g>
      <g id="Group_8" data-name="Group 8" transform="translate(31.201 7.354)">
        <g id="Group_7" data-name="Group 7">
          <path id="Path_3" data-name="Path 3" d="M1042.819,890.212a.484.484,0,0,1-.484-.484v-10.89c0-1.573-.706-2.37-2.1-2.37-2.276,0-3.69,2.724-3.69,7.109v6.151a.484.484,0,0,1-.484.484h-3.23a.484.484,0,0,1-.484-.484v-10.89c0-1.573-.706-2.37-2.1-2.37-.865,0-3.69.54-3.69,7.482v5.779a.484.484,0,0,1-.484.484h-3.23a.484.484,0,0,1-.484-.484V873.635a.484.484,0,0,1,.484-.484h3.23a.484.484,0,0,1,.484.484v2.258h0a5.817,5.817,0,0,1,4.908-3.013,4.723,4.723,0,0,1,4.773,3.52h0c1.339-2.369,3.044-3.521,5.213-3.521,3.132,0,5.078,2.011,5.078,5.247v11.6a.484.484,0,0,1-.484.484Z" transform="translate(-1022.362 -872.88)"/>
        </g>
      </g>
      <g id="Group_10" data-name="Group 10" transform="translate(58.584 7.354)">
        <g id="Group_9" data-name="Group 9">
          <path id="Path_4" data-name="Path 4" d="M1144.162,890.483a8.193,8.193,0,0,1-6.33-2.471,9.7,9.7,0,0,1,0-12.627,9.252,9.252,0,0,1,12.661,0,9.7,9.7,0,0,1,0,12.627A8.191,8.191,0,0,1,1144.162,890.483Zm0-14.015a3.744,3.744,0,0,0-3.115,1.523,5.775,5.775,0,0,0-1.151,3.69,5.967,5.967,0,0,0,1.151,3.724,4,4,0,0,0,6.229,0,5.973,5.973,0,0,0,1.151-3.724,5.779,5.779,0,0,0-1.151-3.69A3.741,3.741,0,0,0,1144.162,876.468Z" transform="translate(-1135.496 -872.88)"/>
        </g>
      </g>
      <g id="Group_12" data-name="Group 12" transform="translate(77.999 7.354)">
        <g id="Group_11" data-name="Group 11">
          <path id="Path_5" data-name="Path 5" d="M1220.885,890.483a4.854,4.854,0,0,1-5.179-5.18c0-3.393,2.857-5.586,7.278-5.586h2.844v-.745c0-1.686-.974-2.505-2.979-2.505a2.761,2.761,0,0,0-2.8,1.6.483.483,0,0,1-.548.271l-2.673-.611a.485.485,0,0,1-.358-.6c.743-2.618,3.188-4.244,6.383-4.244,4.762,0,7.177,2.4,7.177,7.143v9.705a.484.484,0,0,1-.484.484h-2.573a.484.484,0,0,1-.475-.388l-.361-1.779A6.451,6.451,0,0,1,1220.885,890.483Zm2.133-7.447c-1.932,0-2.912.74-2.912,2.2a1.621,1.621,0,0,0,1.76,1.659,4.2,4.2,0,0,0,2.742-.982,3.089,3.089,0,0,0,1.219-2.539v-.338Z" transform="translate(-1215.706 -872.88)"/>
        </g>
      </g>
    </g>
  </g>
</svg>
