<svg id="Group_2416" data-name="Group 2416" xmlns="http://www.w3.org/2000/svg" width="150" height="42.674" viewBox="0 0 150 42.674">
  <path id="Path_809" data-name="Path 809" d="M666.053,353.1q-.009-17.976-.015-35.952c0-.277-.064-.582.225-.78a18.75,18.75,0,0,1,1.886,1.724,2.763,2.763,0,0,0,2.4.992c2.532-.051,1.962-.18,2.3,2.047,1.439,9.411,2.8,18.835,4.212,28.25.116.774-.047,1.1-.87,1.291-3.206.738-6.389,1.571-9.583,2.363A4.232,4.232,0,0,1,666.053,353.1Z" transform="translate(-640.428 -311.424)" fill="#5e8e3e"/>
  <path id="Path_810" data-name="Path 810" d="M557.557,330.345q.015-16.841.012-33.683a9.243,9.243,0,0,0-.123-1.322c-.424-.36-.85-.091-1.25.032-.567.175-.876.132-1.113-.535a4.372,4.372,0,0,0-2.294-2.788,16.665,16.665,0,0,1-3.68-1.545c-.136-.1-.368-.067-.557-.086a5.14,5.14,0,0,0-4.076,1.47,14.066,14.066,0,0,0-4.187,7.294c-.195.789-.384,1.373-1.326,1.556-1.049.2-2.053.628-3.087.918a1.446,1.446,0,0,0-1.189,1.384c-.211,1.95-.493,3.891-.742,5.837-.766,5.993-1.514,11.989-2.315,17.977-.1.77.209.931.827,1.037,5.828.995,11.651,2.018,17.481,3,2.43.41,4.842.929,7.3,1.181C557.694,331.563,557.556,330.932,557.557,330.345Zm-13.174-31.3c-.736.188-1.468.394-2.19.629-.625.2-.645-.043-.494-.544a13.135,13.135,0,0,1,3.862-6.311,3.063,3.063,0,0,1,3.473-.734,10.108,10.108,0,0,0-3.955,6.186A.9.9,0,0,1,544.383,299.048Zm5.569-1.738c-.948.244-1.883.54-2.817.837-.426.136-.629.111-.448-.4a8.772,8.772,0,0,1,2.707-4.159c.461-.366.761-.366.928.275a12.328,12.328,0,0,1,.439,2.481C550.915,296.87,550.572,297.151,549.951,297.31Zm2.975-.941c-.531.292-.866.2-.861-.542a10.3,10.3,0,0,0-.516-2.7,3.676,3.676,0,0,1,2.386,2.529C554.017,296.427,553.282,296.173,552.926,296.37Z" transform="translate(-531.611 -290.393)" fill="#94be46"/>
  <path id="Path_811" data-name="Path 811" d="M1020.587,377.685a6.814,6.814,0,0,1,4.245-2.494c2.826-.364,4.883.863,5.692,3.584,1.314,4.423-.6,11.578-5.632,14.179a7.754,7.754,0,0,1-6.348.5c-.531-.186-.64-.058-.725.421-.366,2.057-.777,4.105-1.131,6.164-.093.539-.287.74-.854.718-1.2-.046-2.41-.045-3.613,0-.64.023-.775-.128-.648-.785q1.726-8.906,3.375-17.826c.374-2.024.675-4.062.967-6.1.073-.51.239-.71.767-.691.982.035,1.967.048,2.948,0,.7-.037,1.034.108.807.882a4.069,4.069,0,0,0-.068.851C1020.3,377.338,1020.1,377.638,1020.587,377.685Z" transform="translate(-920.117 -358.988)"/>
  <path id="Path_812" data-name="Path 812" d="M836.941,345.113a6.6,6.6,0,0,1,5.478-2.13,3.862,3.862,0,0,1,3.649,3.918,12.638,12.638,0,0,1-.233,3.312c-.649,3.489-1.35,6.969-1.984,10.46-.1.559-.284.75-.842.734-1.2-.033-2.412-.044-3.616,0-.683.026-.793-.2-.668-.832.652-3.295,1.265-6.6,1.893-9.9a7.355,7.355,0,0,0,.113-2.083,1.519,1.519,0,0,0-2.172-1.386,4.42,4.42,0,0,0-2.37,2.353,15.809,15.809,0,0,0-1.357,4.733c-.41,2.115-.838,4.227-1.206,6.35-.1.594-.333.781-.922.761-1.236-.042-2.474-.028-3.711-.006-.509.009-.618-.1-.512-.649q2.363-12.275,4.652-24.565c.118-.636.346-.832.978-.807,1.2.049,2.411.039,3.616,0,.58-.018.679.163.572.71-.548,2.8-1.058,5.6-1.581,8.407C836.7,344.74,836.443,345.065,836.941,345.113Z" transform="translate(-771.905 -326.812)"/>
  <path id="Path_813" data-name="Path 813" d="M1227.754,388.965c1.249-3.8,2.739-7.5,4.166-11.232.136-.355.272-.608.719-.6,1.581.018,3.162.007,4.881.007-.612,1.315-1.158,2.52-1.732,3.712-2.27,4.711-4.2,9.589-6.859,14.107-1.764,3-3.745,5.82-6.937,7.522-2.255,1.2-2.26,1.216-3.06-1.146-.234-.69-.7-1.435-.593-2.071.127-.725,1.174-.667,1.774-1.043a13.828,13.828,0,0,0,2.067-1.512,4.317,4.317,0,0,0,1.534-4.528c-1.042-4.7-1.786-9.467-2.689-14.2-.136-.714.05-.878.729-.854,1.268.043,2.539.035,3.807,0,.523-.013.711.155.762.681.347,3.6.725,7.193,1.093,10.789C1227.583,388.67,1227.32,389.138,1227.754,388.965Z" transform="translate(-1087.519 -360.603)"/>
  <path id="Path_814" data-name="Path 814" d="M927.972,385.786a11.446,11.446,0,0,1,5.385-9.494,8.77,8.77,0,0,1,6.587-1.1c2.884.59,4.681,2.694,5.04,6.018.47,4.362-1.576,9.563-5.872,11.675a9.1,9.1,0,0,1-6.2.695C929.745,392.855,927.941,390.2,927.972,385.786Z" transform="translate(-852.475 -358.872)"/>
  <path id="Path_815" data-name="Path 815" d="M1173.552,345.43c-1.745,0-1.74,0-2.057,1.67-.739,3.892-1.5,7.779-2.208,11.677-.119.655-.311.926-1.016.888-1.139-.061-2.285-.054-3.425,0-.706.031-.852-.178-.716-.865.8-4.072,1.565-8.151,2.341-12.228.216-1.137.217-1.137-.939-1.138-1.24,0-1.234,0-.978-1.214.137-.651.289-1.3.368-1.961.068-.559.318-.722.87-.718,1.6.011,1.6-.014,1.944-1.544,1.137-5,4.942-7.568,9.668-6.553.693.149,1.039.359.732,1.117a9.45,9.45,0,0,0-.329,1.189,4.523,4.523,0,0,1-.484,1.715c-.4.478-1.1-.041-1.689,0a3.176,3.176,0,0,0-2.728,2.439c-.547,1.643-.538,1.655,1.152,1.649,1.977-.007,1.977-.007,1.629,1.97-.011.063-.022.125-.033.187C1175.334,345.43,1175.334,345.43,1173.552,345.43Z" transform="translate(-1043.613 -325.062)"/>
  <path id="Path_816" data-name="Path 816" d="M765.768,375.395a9.741,9.741,0,0,1,2.867.467c.546.175.793.4.527,1.025a16.3,16.3,0,0,0-.689,2.171c-.158.592-.377.824-1.04.553a5.735,5.735,0,0,0-3.077-.385,1.771,1.771,0,0,0-1.659,1.344,1.632,1.632,0,0,0,.919,1.725c.575.392,1.191.724,1.769,1.112,1.708,1.149,3,2.556,2.851,4.806a5.557,5.557,0,0,1-3.563,5.078,10.948,10.948,0,0,1-8.6-.015c-.595-.237-.793-.567-.489-1.15a.717.717,0,0,0,.03-.09c.3-.833.384-1.921.968-2.43.67-.584,1.522.432,2.365.524a7.616,7.616,0,0,0,2.636.129,1.674,1.674,0,0,0,.916-2.861,5.533,5.533,0,0,0-1.27-.986c-.536-.336-1.066-.684-1.578-1.055a5.171,5.171,0,0,1,.222-8.443A9.323,9.323,0,0,1,765.768,375.395Z" transform="translate(-712.806 -359.203)"/>
  <path id="Path_817" data-name="Path 817" d="M1120.592,376.8c.666.1,1.773-.377,2.2.193.326.434-.161,1.491-.309,2.266-.939,4.913-1.9,9.823-2.81,14.742-.124.666-.359.9-1.042.866-1.17-.057-2.347-.048-3.518,0-.645.025-.725-.2-.614-.776q1.6-8.3,3.148-16.617c.092-.49.274-.716.8-.682C1119.115,376.837,1119.783,376.8,1120.592,376.8Z" transform="translate(-1003.44 -360.271)"/>
  <path id="Path_818" data-name="Path 818" d="M1136.015,339.8a2.935,2.935,0,0,1,2.92-3,2.413,2.413,0,0,1,2.564,2.569,2.85,2.85,0,0,1-3.013,2.97A2.358,2.358,0,0,1,1136.015,339.8Z" transform="translate(-1020.89 -327.96)" fill="#010101"/>
  <path id="Path_819" data-name="Path 819" d="M1266.048,437.732c.054.2-.033.475-.194.409-.353-.144-.208-.492-.144-.777Z" transform="translate(-1125.813 -409.369)" fill="#606061"/>
  <path id="Path_820" data-name="Path 820" d="M871.247,383.88c-.041.16-.123.316-.3.307s-.12-.188-.108-.3a.905.905,0,0,1,.181-.622C871.127,383.463,871,383.742,871.247,383.88Z" transform="translate(-806.21 -365.58)" fill="#a9aaab"/>
  <path id="Path_821" data-name="Path 821" d="M1057.318,386.009c-.088.273-.22.509-.381.064a.635.635,0,0,1,.162-.662C1057.217,385.593,1057.055,385.879,1057.318,386.009Z" transform="translate(-956.848 -367.311)" fill="#818283"/>
  <path id="Path_822" data-name="Path 822" d="M572.617,380.259a8.356,8.356,0,0,1-4.89-1.658.943.943,0,0,1-.435-1.2,22.585,22.585,0,0,0,.592-2.395c.1-.514.3-.539.7-.27a7.56,7.56,0,0,0,2.68,1.181,1.788,1.788,0,0,0,2.162-.723,1.951,1.951,0,0,0-.422-2.35,14.08,14.08,0,0,0-1.614-1.321,6.475,6.475,0,0,1-1.132-9.845c2.358-2.7,5.462-3.218,8.838-2.767.591.079.793.346.6.977-.358,1.148-.651,2.318-.927,3.489-.112.477-.277.6-.766.444a6.348,6.348,0,0,0-3.56-.182,1.915,1.915,0,0,0-1.469,1.456,1.508,1.508,0,0,0,.667,1.662c.965.716,1.968,1.381,2.948,2.077,3.874,2.748,3,9.32-1.007,10.946A7.406,7.406,0,0,1,572.617,380.259Z" transform="translate(-560.439 -345.742)" fill="#fefefe"/>
  <path id="Path_823" data-name="Path 823" d="M1056.77,400.3a10.294,10.294,0,0,1-2.63,6.739,2.915,2.915,0,0,1-2.385.946c-1.511-.094-1.857-.522-1.584-2a43.2,43.2,0,0,1,.966-4.832,6.96,6.96,0,0,1,1.594-2.878,2.483,2.483,0,0,1,2.726-.871c1.072.382,1.218,1.357,1.312,2.326C1056.786,399.921,1056.77,400.112,1056.77,400.3Z" transform="translate(-951.329 -376.912)" fill="#f2f4f6"/>
  <path id="Path_824" data-name="Path 824" d="M962.083,398.955a13.264,13.264,0,0,1-1.446,5.625,7.253,7.253,0,0,1-.822,1.157,2.418,2.418,0,0,1-2.534.9,2.249,2.249,0,0,1-1.7-2.067,10.425,10.425,0,0,1,1.537-7.077,4.259,4.259,0,0,1,.853-1.007,2.281,2.281,0,0,1,3.956,1.311A11.093,11.093,0,0,1,962.083,398.955Z" transform="translate(-874.739 -375.69)" fill="#f2f4f6"/>
</svg>
