<svg id="_4Pd9St" data-name="4Pd9St" xmlns="http://www.w3.org/2000/svg" width="141.456" height="42.663" viewBox="0 0 141.456 42.663">
  <g id="Group_2419" data-name="Group 2419" transform="translate(0 0)">
    <g id="Group_2417" data-name="Group 2417" transform="translate(19.907 25.732)">
      <path id="Path_825" data-name="Path 825" d="M730.631,766.358c-.13.039-.255.094-.382.144-.934.368-1.861.751-2.8,1.1a66.661,66.661,0,0,1-8.442,2.549,1.217,1.217,0,0,0-.5.035,71.521,71.521,0,0,1-13.4,1.866,65.684,65.684,0,0,1-6.74-.048c-2.443-.142-4.872-.375-7.294-.726a78.3,78.3,0,0,1-10.245-2.244,14.771,14.771,0,0,0-2.54-.725h0l-2.956-1.031c-.348-.121-.693-.249-1.029-.4a73.647,73.647,0,0,1-9.234-4.474,1.521,1.521,0,0,0-.523-.192.63.63,0,0,0-.681.887,1.274,1.274,0,0,0,.37.482c.685.588,1.36,1.188,2.061,1.755a55.411,55.411,0,0,0,39.1,12.139,57.89,57.89,0,0,0,15.035-3.243,2.026,2.026,0,0,0,1.121-.417h0a49.815,49.815,0,0,0,6.312-2.991,34.091,34.091,0,0,0,3.847-2.5,1.114,1.114,0,0,0,.448-1.469A1.288,1.288,0,0,0,730.631,766.358Z" transform="translate(-663.809 -760.714)" fill="#fe9800"/>
      <path id="Path_826" data-name="Path 826" d="M984.762,754.987a17.075,17.075,0,0,0-5.743-.162,13.179,13.179,0,0,0-5.776,2.035c-.323.217-.714.474-.546.932s.606.288.943.248a51.84,51.84,0,0,1,5.514-.427,15.874,15.874,0,0,1,2.174.119c1.593.234,2.031.816,1.825,2.43a16.989,16.989,0,0,1-.687,2.928c-.484,1.543-1.063,3.052-1.672,4.551-.108.267-.237.576.065.791a.662.662,0,0,0,.808-.1,5.358,5.358,0,0,0,.731-.635,15.824,15.824,0,0,0,4.3-10.329C986.792,755.621,986.506,755.351,984.762,754.987Z" transform="translate(-911.658 -754.658)" fill="#fe9800"/>
    </g>
    <path id="Path_827" data-name="Path 827" d="M717.959,786.269a1.745,1.745,0,0,1-1.028-.4A2.177,2.177,0,0,1,717.959,786.269Z" transform="translate(-686.532 -753.972)" fill="#fe9800"/>
    <g id="Group_2418" data-name="Group 2418">
      <path id="Path_828" data-name="Path 828" d="M713.294,627.6a6.5,6.5,0,0,0-10.636.96c-.121.233-.235.469-.4.8a6.4,6.4,0,0,0-3.691-3.817c-.086-.16-.26-.164-.4-.19a7.2,7.2,0,0,0-3.678.153,2.478,2.478,0,0,0-1.23.653h0a7.158,7.158,0,0,0-2.441,3.1c-.058-.866-.054-1.7-.06-2.532,0-.667-.3-.966-.97-.969q-1.891-.01-3.783,0c-.695,0-.971.3-.978,1.012-.009.936-.026,1.873-.027,2.809q0,9.554,0,19.109c0,.808.3,1.1,1.119,1.1,1.244,0,2.488,0,3.732,0,.936,0,1.185-.249,1.185-1.176q0-6.208,0-12.416a12.471,12.471,0,0,1,.271-2.944,2.8,2.8,0,0,1,1.946-2.289,4.41,4.41,0,0,1,2.246.3h0l.6.622h0l.008-.007.506,1.338h0a19.008,19.008,0,0,1,.137,2.6q-.015,6.337-.021,12.673c0,1.069.226,1.3,1.276,1.3q1.764,0,3.528,0c1,0,1.233-.233,1.234-1.231,0-4.463,0-8.926.021-13.389a6.879,6.879,0,0,1,.361-2.313,2.9,2.9,0,0,1,3.2-1.893c1.257.154,1.919.92,2.062,2.45.063.677.072,1.36.072,2.041q0,6.618-.017,13.235c0,.818.279,1.095,1.111,1.1q1.866.006,3.732,0c.924,0,1.193-.267,1.194-1.18q0-3.628,0-7.257c0-3.236.023-6.473-.011-9.709A6.456,6.456,0,0,0,713.294,627.6Z" transform="translate(-660.906 -625.033)"/>
      <path id="Path_829" data-name="Path 829" d="M1206.144,633.56a16.008,16.008,0,0,0-.378-3.55,5.623,5.623,0,0,0-1.8-3.133,6.187,6.187,0,0,0-9.277,1.539c-.256.436-.47.9-.7,1.345l-.118-.02c0-.949,0-1.9,0-2.846,0-.644-.293-.945-.93-.949q-1.892-.012-3.784,0c-.7,0-.986.3-.986,1q0,10.988,0,21.976c0,.758.29,1.048,1.054,1.051q1.943.009,3.886,0c.789,0,1.073-.3,1.074-1.083q0-4.14,0-8.28c0-1.465,0-2.93.022-4.395a7.853,7.853,0,0,1,.814-3.656,2.746,2.746,0,0,1,2.782-1.519,2.4,2.4,0,0,1,2.094,2.081,9.528,9.528,0,0,1,.245,2.434q0,6.7,0,13.39c0,.738.274,1.022,1.014,1.026q1.969.011,3.937,0c.8,0,1.058-.27,1.058-1.083Q1206.147,641.226,1206.144,633.56Z" transform="translate(-1064.692 -625.217)"/>
      <path id="Path_830" data-name="Path 830" d="M989.266,645.609a11.52,11.52,0,0,0-2.156-.917c-.116-.147-.3-.151-.454-.2a17.536,17.536,0,0,0-4.86-.646c-.172,0-.424.135-.506-.171-.008.029-.015.054-.021.077a.588.588,0,0,1,.021-.077c.639-.9,1.282-1.8,1.917-2.708,1.927-2.745,3.844-5.5,5.78-8.236a3.23,3.23,0,0,0,.7-2.23c-.052-.574-.008-1.157-.01-1.736,0-.835-.263-1.1-1.1-1.1-1.635,0-3.271,0-4.906,0q-4.471,0-8.943,0c-.849,0-1.108.263-1.111,1.095q0,1.353,0,2.707c0,.809.259,1.057,1.082,1.058q3.321,0,6.643,0c.161,0,.385-.086.469.078s-.118.3-.211.43q-4.042,5.806-8.1,11.6a3.66,3.66,0,0,0-.7,2.1c-.015,1.175,0,2.35-.007,3.524a.848.848,0,0,0,.388.783c.355.391.685.1,1-.053a16.373,16.373,0,0,1,9.64-1.518c1.118.15,2.184.5,3.274.756h0c.591.26,1.185.514,1.772.783.7.322,1.216.008,1.224-.778.012-1.088.007-2.177,0-3.265A1.446,1.446,0,0,0,989.266,645.609Z" transform="translate(-891.865 -627.012)"/>
      <path id="Path_831" data-name="Path 831" d="M873.942,644.576a6.054,6.054,0,0,1-1.353-4.068c.031-3.149.094-6.3-.038-9.447a6.1,6.1,0,0,0-4.337-5.94,12.929,12.929,0,0,0-9.057.15,7.366,7.366,0,0,0-4.838,5.572c-.176.786.05,1.128.85,1.224,1.217.146,2.437.271,3.657.4.653.07.93-.12,1.118-.758.048-.163.086-.33.142-.49a3.265,3.265,0,0,1,3.181-2.14,2.777,2.777,0,0,1,2.955,1.734h0a17.246,17.246,0,0,1,.191,2.431c.016.527-.151.69-.668.733a32.322,32.322,0,0,0-5.991.894,7.138,7.138,0,0,0-2.633,1.149h0a6.333,6.333,0,0,0-1.862,1.57,7.927,7.927,0,0,0-1.5,7.029,5.484,5.484,0,0,0,4.268,4.533,8.623,8.623,0,0,0,8.211-1.872h0c.461-.19.686-.667,1.1-.91a13.226,13.226,0,0,0,2.216,2.588.976.976,0,0,0,1.457,0c1.048-.9,2.083-1.809,3.131-2.705a.807.807,0,0,0,.181-1.136A4.133,4.133,0,0,0,873.942,644.576Zm-8.328-1.564a3.736,3.736,0,0,1-2.3,1.9,2.511,2.511,0,0,1-3.217-1.893c-.449-1.868-.1-4.289,2.909-5.154a12.565,12.565,0,0,1,3.03-.415c.285-.011.4.1.394.383-.013.425,0,.851,0,1.277A7.43,7.43,0,0,1,865.614,643.012Z" transform="translate(-796.144 -624.374)"/>
      <path id="Path_832" data-name="Path 832" d="M583.346,644.472a5.876,5.876,0,0,1-1.274-3.84c.018-3.2.1-6.4-.041-9.6a5.985,5.985,0,0,0-3.948-5.733h0c-.121-.165-.318-.183-.489-.243a11.815,11.815,0,0,0-4.042-.668,10.188,10.188,0,0,0-3.251.4h0a6.135,6.135,0,0,0-2.562.921h0a7.245,7.245,0,0,0-3.956,5.278c-.139.667.117,1,.8,1.085,1.234.15,2.472.275,3.708.408.674.072,1-.123,1.141-.791a3.341,3.341,0,0,1,3.61-2.6,2.654,2.654,0,0,1,2.823,2.634c.057.54.011,1.09.055,1.632.035.445-.1.615-.573.659a34.973,34.973,0,0,0-6.159.917c-4.3,1.185-6.5,4.284-6.132,8.644a6.086,6.086,0,0,0,5.859,5.857,8.864,8.864,0,0,0,7.523-2.808c.272-.292.418-.3.632.053a9.083,9.083,0,0,0,1.954,2.278.966.966,0,0,0,1.455.029q1.575-1.344,3.129-2.71a.8.8,0,0,0,.183-1.174A5.951,5.951,0,0,0,583.346,644.472Zm-8.1-1.735a4.17,4.17,0,0,1-1.381,1.663h0a3.173,3.173,0,0,1-3.354.11h0a3.985,3.985,0,0,1,.625-6.036,7.58,7.58,0,0,1,3.611-.975c1.163-.08,1.158-.068,1.165,1.1A8.755,8.755,0,0,1,575.249,642.737Z" transform="translate(-563.018 -624.381)"/>
      <path id="Path_833" data-name="Path 833" d="M1085.665,626.775a1.945,1.945,0,0,0-1.021-.516c-.107-.152-.285-.172-.44-.227a9.817,9.817,0,0,0-5.065-.41,6.853,6.853,0,0,0-3,1.148,8.221,8.221,0,0,0-2.826,2.675,13.538,13.538,0,0,0-2.207,6.607,16.915,16.915,0,0,0,1.463,9.156,9.155,9.155,0,0,0,13.089,3.966,10.573,10.573,0,0,0,3.377-3.486h0a3.352,3.352,0,0,0,.808-1.651h0c.06-.177.123-.352.179-.53a17.046,17.046,0,0,0-.6-12.485A8.8,8.8,0,0,0,1085.665,626.775Zm-1.742,16.251a4.714,4.714,0,0,1-.842,1.735,2.65,2.65,0,0,1-4.466-.324,8.288,8.288,0,0,1-.985-3.567,30.037,30.037,0,0,1,.063-6.883,6.561,6.561,0,0,1,.77-2.42,2.73,2.73,0,0,1,2.772-1.446,2.6,2.6,0,0,1,2.387,1.789,15.129,15.129,0,0,1,.769,4.771c.022.459,0,.919,0,1.379A17.328,17.328,0,0,1,1083.922,643.026Z" transform="translate(-970.677 -625.247)"/>
    </g>
  </g>
</svg>
