<svg xmlns="http://www.w3.org/2000/svg" xmlns:xlink="http://www.w3.org/1999/xlink" width="32" height="32" viewBox="0 0 32 32">
  <defs>
    <clipPath id="clip-path">
      <rect id="Rectangle_1849" data-name="Rectangle 1849" width="32" height="32" rx="3" fill="none"/>
    </clipPath>
  </defs>
  <g id="Group_2454" data-name="Group 2454" transform="translate(-1529.623 -1441.796)">
    <g id="Group_2453" data-name="Group 2453" transform="translate(1529.623 1441.796)" clip-path="url(#clip-path)">
      <g id="Group_2452" data-name="Group 2452" transform="translate(-0.004 -0.004)">
        <rect id="Rectangle_1847" data-name="Rectangle 1847" width="32" height="32" transform="translate(0 0)" fill="#fff"/>
        <g id="Group_2451" data-name="Group 2451" transform="translate(0.146 11.788)">
          <g id="Group_2450" data-name="Group 2450">
            <path id="Path_878" data-name="Path 878" d="M1540.676,1631.393v2.694h.866v-3.748h-1.458l-1.06,2.3-1.061-2.3h-1.457v3.38l-1.681-3.38h-1.159l-1.76,3.748h1.038l.337-.8h1.887l.371.8h1.834v-2.694l1.241,2.694h.82Zm-7.1,1.2.605-1.427.662,1.427Z" transform="translate(-1531.906 -1630.339)" fill="#0068b6"/>
            <path id="Path_879" data-name="Path 879" d="M1701.962,1633.315h-1.973v-.724h1.973v-.772h-1.973v-.707h1.973v-.773h-2.839v3.748h2.839Z" transform="translate(-1688.671 -1630.339)" fill="#0068b6"/>
            <path id="Path_880" data-name="Path 880" d="M1880.734,1737.4h2.839v-.772H1881.6v-.724h1.972v-.772H1881.6v-.707h1.972v-.772h-2.839Z" transform="translate(-1858.932 -1727.198)" fill="#0068b6"/>
            <path id="Path_881" data-name="Path 881" d="M1758.937,1631.478a1.178,1.178,0,0,0-1.333-1.138h-2.2v3.748h.866v-1.349h1.036a.567.567,0,0,1,.567.567v.783h.944v-1.064a.662.662,0,0,0-.47-.572A1.123,1.123,0,0,0,1758.937,1631.478Zm-1.409.488h-1.261v-.854h1.261a.427.427,0,1,1,0,.854Z" transform="translate(-1741.432 -1630.339)" fill="#0068b6"/>
            <path id="Path_882" data-name="Path 882" d="M1820.2,1734.793a1.177,1.177,0,0,0-1.334-1.138h-2.2v3.748h.867v-1.349h1.036a.566.566,0,0,1,.567.566v.784h.944v-1.064a.661.661,0,0,0-.47-.572A1.123,1.123,0,0,0,1820.2,1734.793Zm-1.408.487h-1.262v-.853h1.262a.427.427,0,1,1,0,.853Z" transform="translate(-1798.862 -1727.198)" fill="#0068b6"/>
            <rect id="Rectangle_1848" data-name="Rectangle 1848" width="0.867" height="3.748" transform="translate(17.998)" fill="#0068b6"/>
            <path id="Path_883" data-name="Path 883" d="M1842.879,1634.087h1.055l.338-.8h1.887l.371.8h1.823v-2.649l1.829,2.649h1.149v-3.748h-.867v2.543l-1.813-2.543h-1.165v3.358l-1.67-3.358h-1.159l-1.382,2.944h-.331c-.454,0-.8-.432-.8-1.07s.344-1.07.8-1.07h.931v-.8h-1c-1.156,0-1.6.432-1.6,1.874S1841.723,1634.087,1842.879,1634.087Zm2.294-2.923.663,1.427h-1.268Z" transform="translate(-1821.943 -1630.339)" fill="#0068b6"/>
            <path id="Path_884" data-name="Path 884" d="M1657.564,1733.655h-3.136l-1.051,1.193-1.038-1.193h-3.575v3.748h3.517l1.1-1.251,1.1,1.251h1.686v-1.262h1.393a1.243,1.243,0,1,0,0-2.485Zm-5.757,2.976h-2.177v-.724h1.827v-.772h-1.827v-.707h2.235l.941,1.069Zm2.143-1.123,1.355-1.538v3.1Zm3.478-.14h-1.256v-.941h1.256a.47.47,0,0,1,0,.941Z" transform="translate(-1641.46 -1727.198)" fill="#0068b6"/>
            <path id="Path_885" data-name="Path 885" d="M1937.159,1735.125h-.9a.355.355,0,1,1,0-.7h1.6v-.772H1935.8c-.428,0-.925.178-.925,1.121,0,.82.5.976.925.976h1.07a.44.44,0,0,1,0,.879h-1.994v.772h2.171c.428,0,1.042-.193,1.042-1.218C1938.084,1735.294,1937.587,1735.125,1937.159,1735.125Z" transform="translate(-1909.686 -1727.198)" fill="#0068b6"/>
            <path id="Path_886" data-name="Path 886" d="M1993.65,1735.125h-.9a.355.355,0,1,1,0-.7h1.6v-.772h-2.063c-.428,0-.925.178-.925,1.121,0,.82.5.976.925.976h1.069a.44.44,0,0,1,0,.879h-1.994v.772h2.171c.428,0,1.042-.193,1.042-1.218C1994.575,1735.294,1994.078,1735.125,1993.65,1735.125Z" transform="translate(-1962.646 -1727.198)" fill="#0068b6"/>
          </g>
          <path id="Path_887" data-name="Path 887" d="M1740.038,1663.46" transform="translate(-1727.03 -1661.39)"/>
        </g>
        <path id="Path_888" data-name="Path 888" d="M1558.925,1459.41h2.638v-17.674h-32v14.328l1.462-3.111h2.04l.7,1.5v-1.5h2.34l.739,1.625.749-1.625h8.551a2.242,2.242,0,0,1,1.291.358l0-.358h1.61v.539a1.13,1.13,0,0,1,.957-.539h4.026l.617,1.318v-1.318h2.1l.881,1.236v-1.236h2.139v4.789h-2.324l-.792-1.145v1.145h-2.908l-.335-.72h-.945l-.334.72h-2.123a1.148,1.148,0,0,1-.957-.437v.437h-3.381v-.991a.327.327,0,0,0-.334-.32h-.266v1.311h-7.047v-.469l-.29.469h-1.8l-.291-.47v.47h-2.868l-.224-.552h-1l-.238.564-1.743-.005v15.912h.007v.082h31.993v-10.075l-.149.131a1.519,1.519,0,0,1-.941.4h-2.424v-.54a.97.97,0,0,1-.856.54H1549.5v-.992a.328.328,0,0,0-.335-.319h-.266v1.311h-1.921v-1.57a1.848,1.848,0,0,1-1.164.409h-.838v1.161h-2.7l-.686-.775-.731.775h-4.545v-4.789h4.561l.714.814.717-.814h3.51a1.842,1.842,0,0,1,1.164.409v-.409h3a2.4,2.4,0,0,1,1.059.223l0-.223h3.829v.383a.88.88,0,0,1,.739-.383h2.638v.312A.851.851,0,0,1,1558.925,1459.41Z" transform="translate(-1529.563 -1441.736)" fill="#0068b6"/>
      </g>
    </g>
  </g>
</svg>
