<svg xmlns="http://www.w3.org/2000/svg" width="34" height="34" viewBox="0 0 34 34">
  <g id="Group_2444" data-name="Group 2444" transform="translate(-995.727 -1438.858)">
    <g id="Rectangle_1842" data-name="Rectangle 1842" transform="translate(996.727 1439.858)" fill="#fff" stroke="#e0e0e0" stroke-width="1">
      <rect width="32" height="32" rx="3" stroke="none"/>
      <rect x="-0.5" y="-0.5" width="33" height="33" rx="3.5" fill="none"/>
    </g>
    <g id="Group_2443" data-name="Group 2443" transform="translate(1000.597 1443.673)">
      <path id="Path_841" data-name="Path 841" d="M1075.473,1515.758a7.432,7.432,0,1,0,0-14.863h-9.4a7.432,7.432,0,0,0,0,14.863Z" transform="translate(-1058.646 -1500.895)" fill="#073f89"/>
      <path id="Path_842" data-name="Path 842" d="M1068.569,1518.111a7.265,7.265,0,1,0-7.265-7.265,7.265,7.265,0,0,0,7.265,7.265" transform="translate(-1061.138 -1503.414)" fill="#dcdcdc"/>
      <path id="Path_843" data-name="Path 843" d="M1109.46,1552.7a4.444,4.444,0,0,0,.01,8.393Z" transform="translate(-1103.493 -1549.459)" fill="#073f89"/>
      <path id="Path_844" data-name="Path 844" d="M1203.843,1556.89a4.443,4.443,0,0,1-2.985,4.2l.01-8.393a4.438,4.438,0,0,1,2.975,4.194" transform="translate(-1191.97 -1549.459)" fill="#073f89"/>
      <path id="Path_845" data-name="Path 845" d="M1085.674,1781.477c.021-.066.039-.137.31-.137.84,0,1,.585,1,1.065a1.674,1.674,0,0,1-1.648,1.75c-.226,0-.341-.029-.341-.185a3.181,3.181,0,0,1,.105-.441Zm-.868-.2c.241.019.366.042.366.2a1.211,1.211,0,0,1-.054.3l-.582,2.1c-.083.292-.151.309-.385.351v.076h1.2a1.93,1.93,0,0,0,2.159-1.838,1.242,1.242,0,0,0-1.386-1.262h-1.319Z" transform="translate(-1082.557 -1763.678)" fill="#221714"/>
      <path id="Path_846" data-name="Path 846" d="M1140.414,1783.755c-.183.282-.393.545-.658.545-.222,0-.222-.209-.222-.3,0-.222.371-1.4.371-1.533,0-.1-.036-.124-.3-.124v-.074c.178-.01.575-.085.758-.119l.014.008-.415,1.528a2.158,2.158,0,0,0-.076.314.078.078,0,0,0,.076.071c.056,0,.195-.093.388-.368Zm-.095-2.108a.224.224,0,0,1-.226-.246.231.231,0,0,1,.224-.258.257.257,0,0,1,.236.261.246.246,0,0,1-.234.242" transform="translate(-1134.479 -1763.627)" fill="#221714"/>
      <path id="Path_847" data-name="Path 847" d="M1156.339,1798.915c-.234.317-.4.538-.658.538-.217,0-.225-.141-.225-.282,0-.115.351-1.272.351-1.464,0-.083-.029-.151-.122-.151-.227,0-.524.407-.7.675a3.756,3.756,0,0,0-.475,1.177h-.356c.146-.536.465-1.647.465-1.747,0-.073-.046-.124-.3-.124v-.076l.77-.146.012.008-.305.992.012.01c.224-.351.658-1.011,1.052-1.011a.289.289,0,0,1,.329.312c0,.2-.38,1.377-.38,1.516a.079.079,0,0,0,.076.083c.093,0,.214-.151.388-.375Z" transform="translate(-1148.189 -1778.79)" fill="#221714"/>
      <path id="Path_848" data-name="Path 848" d="M1190.171,1798.212c.175-.421.5-.787.758-.787a.165.165,0,0,1,.163.187c0,.041-.024.611-1,.811Zm.979.68a1.139,1.139,0,0,1-.7.354.414.414,0,0,1-.444-.431,1.1,1.1,0,0,1,.051-.288l.129-.02c.768-.112,1.216-.5,1.216-.87,0-.205-.146-.32-.39-.32a1.645,1.645,0,0,0-1.419,1.475.618.618,0,0,0,.651.67,1.451,1.451,0,0,0,.957-.512Z" transform="translate(-1181.412 -1778.79)" fill="#221714"/>
      <path id="Path_849" data-name="Path 849" d="M1219.066,1799.409l.387-1.385a2.746,2.746,0,0,0,.075-.38c0-.066-.024-.141-.171-.141a1.262,1.262,0,0,0-.156.02v-.082c.243-.03.521-.092.734-.125l.017.008-.234.945.01.007.037-.091c.158-.312.519-.868.817-.868a.218.218,0,0,1,.227.23c0,.25-.171.25-.224.25-.2,0-.132-.171-.246-.171-.147,0-.431.526-.47.6a5.873,5.873,0,0,0-.441,1.187Z" transform="translate(-1209.04 -1778.79)" fill="#221714"/>
      <path id="Path_850" data-name="Path 850" d="M1240.511,1798.663c.034.21.11.648.494.648a.346.346,0,0,0,.343-.383c0-.315-.566-.77-.566-1.136a.51.51,0,0,1,.57-.526c.214,0,.309.078.451.078a.14.14,0,0,0,.134-.081H1242l-.095.658h-.076c-.022-.271-.137-.546-.448-.546a.239.239,0,0,0-.256.275c0,.3.58.722.58,1.126a.635.635,0,0,1-.705.636c-.144,0-.336-.09-.471-.09-.066,0-.085.047-.114.1h-.076l.095-.756Z" transform="translate(-1228.984 -1778.739)" fill="#221714"/>
      <path id="Path_851" data-name="Path 851" d="M1289.273,1781.161a.729.729,0,0,0-.729-.77c-.952,0-1.435,1.15-1.435,1.849,0,.622.261,1.014.824,1.014a1.537,1.537,0,0,0,1.1-.56l.08.066a1.691,1.691,0,0,1-1.291.707,1.194,1.194,0,0,1-1.243-1.282,2.047,2.047,0,0,1,1.927-1.964,4.869,4.869,0,0,1,.74.115c.141,0,.17-.058.19-.109h.1l-.175.946Z" transform="translate(-1272.33 -1762.764)" fill="#221714"/>
      <path id="Path_852" data-name="Path 852" d="M1329.473,1781.622c-.241.363-.427.592-.723.592-.207,0-.224-.161-.224-.3,0-.1.687-2.576.687-2.676,0-.124-.2-.124-.322-.117v-.078a6.184,6.184,0,0,0,.738-.129l.026.024-.717,2.747a1.784,1.784,0,0,0-.046.224c0,.03,0,.095.07.095.119,0,.22-.131.451-.431Z" transform="translate(-1311.659 -1761.543)" fill="#221714"/>
      <path id="Path_853" data-name="Path 853" d="M1347.948,1798.9c-.3.432-.424.558-.658.558a.218.218,0,0,1-.227-.248,6.751,6.751,0,0,1,.205-.872h-.014c-.322.536-.673,1.128-1.1,1.128-.171,0-.263-.071-.263-.28s.358-1.4.358-1.533-.086-.139-.283-.139v-.068a5.58,5.58,0,0,0,.714-.125l.015.008-.434,1.725c-.015.061,0,.159.1.159.2,0,.5-.444.663-.692a5.11,5.11,0,0,0,.521-1.158h.353l-.376,1.419a2.039,2.039,0,0,0-.088.373c0,.024,0,.076.054.076.09,0,.224-.165.39-.375Z" transform="translate(-1327.94 -1778.79)" fill="#221714"/>
      <path id="Path_854" data-name="Path 854" d="M1380.351,1780.7c0,.4-.451,1.4-1.1,1.4-.224,0-.224-.122-.224-.154,0-.5.455-1.649.98-1.649.3,0,.344.256.344.4m-1.321-1.594c.276.007.31.029.31.141a2.129,2.129,0,0,1-.076.315l-.646,2.379v.017c0,.109.366.253.617.253a1.722,1.722,0,0,0,1.52-1.572.541.541,0,0,0-.567-.573c-.427,0-.728.441-.882.689l-.01,0c.163-.539.38-1.421.482-1.811l-.021-.024c-.248.047-.49.079-.728.11Z" transform="translate(-1358.62 -1761.543)" fill="#221714"/>
      <path id="Path_855" data-name="Path 855" d="M1070.124,1843.428c.236-.044.307-.057.387-.353l.582-2.1a1.147,1.147,0,0,0,.054-.3c0-.164-.129-.182-.334-.2v-.075h1.175v.075c-.236.041-.309.051-.39.351l-.583,2.1a.95.95,0,0,0-.053.3c0,.154.119.168.322.192v.075h-1.16Z" transform="translate(-1069.407 -1819.187)" fill="#221714"/>
      <path id="Path_856" data-name="Path 856" d="M1092.469,1858.07c-.237.319-.405.536-.661.536-.217,0-.227-.142-.227-.282,0-.114.351-1.272.351-1.458,0-.088-.029-.154-.117-.154-.231,0-.529.409-.7.673a3.708,3.708,0,0,0-.473,1.177h-.356c.146-.534.465-1.648.465-1.745,0-.073-.047-.124-.305-.124v-.076c.258-.049.514-.093.77-.148l.014.01-.3.991.01.01c.22-.353.658-1.011,1.051-1.011a.288.288,0,0,1,.327.316c0,.2-.38,1.374-.38,1.518a.081.081,0,0,0,.08.08c.091,0,.21-.153.387-.377Z" transform="translate(-1088.308 -1834.246)" fill="#221714"/>
      <path id="Path_857" data-name="Path 857" d="M1127.416,1849.185h-.4l-.417,1.584a.106.106,0,0,0,0,.041.072.072,0,0,0,.075.078c.1,0,.263-.224.38-.377l.063.034c-.242.366-.426.577-.675.577a.2.2,0,0,1-.225-.192,3.6,3.6,0,0,1,.109-.437l.339-1.308h-.349a.1.1,0,0,1,.01-.071c.027-.041.163-.078.241-.119a2.107,2.107,0,0,0,.519-.461c.017-.022.037-.066.08-.058.032-.009.042.036.032.071l-.131.488h.378Z" transform="translate(-1121.989 -1826.752)" fill="#221714"/>
      <path id="Path_858" data-name="Path 858" d="M1143.634,1857.366c.18-.422.5-.789.756-.789.117,0,.166.09.166.192,0,.035-.024.605-1,.806Zm.978.68a1.148,1.148,0,0,1-.69.356.416.416,0,0,1-.448-.434,1.616,1.616,0,0,1,.044-.288l.136-.018c.77-.112,1.218-.494,1.218-.87,0-.207-.147-.322-.392-.322a1.646,1.646,0,0,0-1.418,1.475.616.616,0,0,0,.648.672,1.463,1.463,0,0,0,.962-.514Z" transform="translate(-1137.786 -1834.246)" fill="#221714"/>
      <path id="Path_859" data-name="Path 859" d="M1174.077,1858.562l.38-1.384a2.021,2.021,0,0,0,.078-.384c0-.064-.024-.141-.173-.141a1.025,1.025,0,0,0-.156.022v-.08c.243-.03.523-.093.736-.127l.014.01-.231.941.009.014.039-.1c.156-.312.519-.868.816-.868a.221.221,0,0,1,.229.234c0,.244-.173.244-.225.244-.2,0-.131-.17-.246-.17-.146,0-.434.526-.47.6a6.227,6.227,0,0,0-.441,1.187Z" transform="translate(-1166.863 -1834.246)" fill="#221714"/>
      <path id="Path_860" data-name="Path 860" d="M1199.571,1858.07c-.238.319-.4.536-.661.536-.217,0-.227-.142-.227-.282,0-.114.351-1.272.351-1.458,0-.088-.029-.154-.117-.154-.227,0-.527.409-.7.673a3.7,3.7,0,0,0-.475,1.177h-.358c.151-.534.466-1.648.466-1.745,0-.073-.048-.124-.3-.124v-.076c.254-.049.512-.093.768-.148l.015.01-.305.991.01.01c.222-.353.658-1.011,1.051-1.011a.29.29,0,0,1,.329.316c0,.2-.378,1.374-.378,1.518a.079.079,0,0,0,.076.08c.093,0,.21-.153.387-.377Z" transform="translate(-1188.714 -1834.246)" fill="#221714"/>
      <path id="Path_861" data-name="Path 861" d="M1232.22,1858.046c0-.428.426-1.472.98-1.472.137,0,.27.09.27.317,0,.466-.463,1.491-.969,1.491-.125,0-.281-.087-.281-.336m1.722-.007c-.214.21-.309.329-.382.329a.065.065,0,0,1-.064-.063c0-.148.438-1.765.449-1.822l-.032-.015-.29.034-.012.014-.051.21h-.01a.351.351,0,0,0-.375-.258,1.726,1.726,0,0,0-1.355,1.584.485.485,0,0,0,.489.563c.285,0,.536-.143.929-.722l.01.01a2.07,2.07,0,0,0-.1.5c0,.081,0,.2.2.2s.365-.169.65-.522Z" transform="translate(-1220.997 -1834.246)" fill="#221714"/>
      <path id="Path_862" data-name="Path 862" d="M1270.251,1849.185h-.4l-.417,1.584a.08.08,0,0,0-.007.041.072.072,0,0,0,.073.078c.1,0,.263-.224.382-.377l.063.034c-.242.366-.427.577-.675.577a.2.2,0,0,1-.226-.192,3.618,3.618,0,0,1,.109-.437l.343-1.308h-.353a.077.077,0,0,1,.01-.071c.027-.041.16-.078.241-.119a2.137,2.137,0,0,0,.519-.461c.017-.022.036-.066.08-.058.032-.009.046.036.032.071l-.132.488h.38Z" transform="translate(-1255.897 -1826.752)" fill="#221714"/>
      <path id="Path_863" data-name="Path 863" d="M1289.659,1842.939c-.185.276-.394.541-.66.541-.222,0-.222-.21-.222-.3,0-.224.373-1.4.373-1.533,0-.1-.036-.124-.3-.124v-.077c.18-.01.571-.085.758-.119l.015.01-.419,1.526a2.3,2.3,0,0,0-.076.315.079.079,0,0,0,.076.071c.058,0,.2-.1.388-.373Zm-.1-2.113a.223.223,0,0,1-.225-.246.232.232,0,0,1,.222-.256.254.254,0,0,1,.237.258.242.242,0,0,1-.234.244" transform="translate(-1274.394 -1819.11)" fill="#221714"/>
      <path id="Path_864" data-name="Path 864" d="M1307.31,1856.568c.227,0,.332.21.332.458,0,.507-.373,1.489-.914,1.489-.239,0-.382-.17-.382-.439,0-.561.434-1.508.963-1.508m.034-.1a1.568,1.568,0,0,0-1.394,1.462.634.634,0,0,0,.713.685,1.6,1.6,0,0,0,1.38-1.445.645.645,0,0,0-.7-.7" transform="translate(-1290.493 -1834.246)" fill="#221714"/>
      <path id="Path_865" data-name="Path 865" d="M1339.776,1858.07c-.239.319-.4.536-.661.536-.217,0-.227-.142-.227-.282,0-.114.353-1.272.353-1.458,0-.088-.03-.154-.119-.154-.231,0-.531.409-.7.673a3.8,3.8,0,0,0-.472,1.177h-.356c.146-.534.466-1.648.466-1.745,0-.073-.049-.124-.3-.124v-.076c.254-.049.51-.093.766-.148l.015.01-.3.991.01.01c.224-.353.658-1.011,1.051-1.011a.289.289,0,0,1,.329.316c0,.2-.38,1.374-.38,1.518a.08.08,0,0,0,.076.08c.093,0,.212-.153.386-.377Z" transform="translate(-1320.158 -1834.246)" fill="#221714"/>
      <path id="Path_866" data-name="Path 866" d="M1373.865,1858.046c0-.428.429-1.472.982-1.472.136,0,.27.09.27.317,0,.466-.465,1.491-.968,1.491-.129,0-.283-.087-.283-.336m1.721-.007c-.21.21-.309.329-.38.329a.068.068,0,0,1-.066-.063c0-.148.437-1.765.453-1.822l-.034-.015-.292.034-.012.014-.049.21h-.007a.358.358,0,0,0-.377-.258,1.73,1.73,0,0,0-1.36,1.584.487.487,0,0,0,.492.563c.285,0,.536-.143.93-.722l.01.01a1.989,1.989,0,0,0-.1.5c0,.081,0,.2.2.2s.366-.169.651-.522Z" transform="translate(-1353.787 -1834.246)" fill="#221714"/>
      <path id="Path_867" data-name="Path 867" d="M1410.449,1840.825c-.244.37-.427.6-.723.6-.208,0-.227-.163-.227-.3,0-.1.687-2.578.687-2.676,0-.122-.2-.122-.321-.119v-.074c.246-.031.492-.073.739-.129l.026.024-.717,2.746a1.442,1.442,0,0,0-.047.224c0,.031,0,.093.071.093.119,0,.217-.132.449-.432Z" transform="translate(-1387.571 -1817.051)" fill="#221714"/>
      <path id="Path_868" data-name="Path 868" d="M1430.141,1836.706h.048c.046,0,.083.022.083.092s-.024.105-.083.105h-.048Zm-.134,0c.057.007.057,0,.057.054v.285c0,.051,0,.051-.057.058v.015h.19v-.015c-.059-.007-.056-.007-.056-.058v-.115h.054c.076.112.105.188.141.188h.076v-.009a.523.523,0,0,1-.09-.1l-.066-.088a.137.137,0,0,0,.1-.126c0-.071-.066-.107-.137-.107h-.207Zm.59.2a.4.4,0,1,0-.4.407.4.4,0,0,0,.4-.407m-.066,0a.336.336,0,1,1-.334-.356.349.349,0,0,1,.334.356" transform="translate(-1406.596 -1815.524)" fill="#221714"/>
    </g>
  </g>
</svg>
