<svg xmlns="http://www.w3.org/2000/svg" xmlns:xlink="http://www.w3.org/1999/xlink" width="34" height="34" viewBox="0 0 34 34">
  <defs>
    <linearGradient id="linear-gradient" y1="0.5" x2="1" y2="0.5" gradientUnits="objectBoundingBox">
      <stop offset="0" stop-color="#04582f"/>
      <stop offset="1" stop-color="#56a733"/>
    </linearGradient>
    <linearGradient id="linear-gradient-2" y1="0.5" x2="1" y2="0.5" gradientUnits="objectBoundingBox">
      <stop offset="0" stop-color="#19264a"/>
      <stop offset="1" stop-color="#085297"/>
    </linearGradient>
    <linearGradient id="linear-gradient-3" y1="0.5" x2="1" y2="0.5" gradientUnits="objectBoundingBox">
      <stop offset="0" stop-color="#53090e"/>
      <stop offset="1" stop-color="#e51729"/>
    </linearGradient>
  </defs>
  <g id="Group_2446" data-name="Group 2446" transform="translate(-418.392 -2008.569)">
    <g id="Rectangle_1843" data-name="Rectangle 1843" transform="translate(419.392 2009.569)" fill="#fff" stroke="#e0e0e0" stroke-width="1">
      <rect width="32" height="32" rx="3" stroke="none"/>
      <rect x="-0.5" y="-0.5" width="33" height="33" rx="3.5" fill="none"/>
    </g>
    <g id="Group_2445" data-name="Group 2445" transform="translate(420.516 2014.109)">
      <path id="Path_869" data-name="Path 869" d="M467.127,2100.507a4.628,4.628,0,0,1-4.626,4.628H437.375v-18.292a4.63,4.63,0,0,1,4.627-4.627h25.125Z" transform="translate(-437.375 -2082.216)" fill="#fff"/>
      <path id="Union_18" data-name="Union 18" d="M0,19.837V13.1H5.134c1.2,0,2.1-.648,2.1-1.653,0-.93-.822-1.52-1.891-1.594V9.813a1.568,1.568,0,0,0,1.5-1.518c0-.943-.783-1.487-1.837-1.541-.084,0-.217-.012-.325-.012H0V3.31A3.311,3.311,0,0,1,3.31,0H8.157V16.532a3.3,3.3,0,0,1-3.3,3.3Zm1.618-7.77V10.321H3.532a1.492,1.492,0,0,1,.228.023.872.872,0,0,1,0,1.7,1.459,1.459,0,0,1-.228.021Zm0-2.727V7.729H3.353a1.482,1.482,0,0,1,.188.015.8.8,0,0,1,0,1.578,1.205,1.205,0,0,1-.188.016Z" transform="translate(19.942 1.539)" fill="url(#linear-gradient)"/>
      <path id="Path_873" data-name="Path 873" d="M467.124,2106.836a3.31,3.31,0,0,0-3.308,3.311v8.163a6.6,6.6,0,0,0,2.86.741,1.6,1.6,0,0,0,1.775-1.637v-3.835h2.839v3.835c0,1.5-.923,2.7-4.078,2.7a14.232,14.232,0,0,1-3.4-.411v6.965h4.851a3.3,3.3,0,0,0,3.3-3.3v-16.532Z" transform="translate(-462.163 -2105.297)" fill="url(#linear-gradient-2)"/>
      <path id="Path_874" data-name="Path 874" d="M613.483,2106.836a3.31,3.31,0,0,0-3.3,3.311v4.327c.839-.72,2.287-1.167,4.637-1.063a14.974,14.974,0,0,1,2.595.4v1.4a6.431,6.431,0,0,0-2.5-.732c-1.786-.135-2.861.738-2.861,2.284s1.074,2.416,2.861,2.28a6.516,6.516,0,0,0,2.5-.729v1.4a14.876,14.876,0,0,1-2.595.394c-2.35.107-3.8-.342-4.637-1.061v7.632h4.85a3.3,3.3,0,0,0,3.3-3.3v-16.532Z" transform="translate(-599.378 -2105.297)" fill="url(#linear-gradient-3)"/>
    </g>
  </g>
</svg>
